<?xml version="1.0" encoding="utf-8"?>
<!-- Generator: Adobe Illustrator 24.0.1, SVG Export Plug-In . SVG Version: 6.00 Build 0)  -->
<svg version="1.1" id="Calque_1" xmlns="http://www.w3.org/2000/svg" xmlns:xlink="http://www.w3.org/1999/xlink" x="0px" y="0px"
	 viewBox="0 0 23 23" style="enable-background:new 0 0 23 23;" xml:space="preserve">
<style type="text/css">
	.st0{fill:#0F354D;}
</style>
<path class="st0" d="M11.5,0.6c-6,0-10.9,4.9-10.9,10.9c0,6,4.9,10.9,10.9,10.9c6,0,10.9-4.9,10.9-10.9C22.4,5.5,17.5,0.6,11.5,0.6z
	 M11.5,18.2c-0.6,0-1-0.5-1-1c0-0.6,0.5-1,1-1s1,0.5,1,1C12.5,17.7,12.1,18.2,11.5,18.2z M13.1,12.5c-0.2,0.1-0.4,0.2-0.6,0.5
	c-0.1,0.2-0.2,0.4-0.2,0.7v0.6c0,0.1-0.1,0.2-0.2,0.2h-1.2c-0.1,0-0.2-0.1-0.2-0.2v-0.6c0-0.6,0.2-1.2,0.5-1.7
	c0.3-0.5,0.8-0.8,1.3-1c0.9-0.3,1.4-1.1,1.4-1.9c0-1.1-1.1-2.1-2.5-2.1S9,8,9,9.1v0.2c0,0.1-0.1,0.2-0.2,0.2H7.6
	c-0.1,0-0.2-0.1-0.2-0.2V9.1c0-1,0.4-2,1.2-2.7c0.8-0.7,1.8-1,2.9-1s2.1,0.4,2.9,1c0.8,0.7,1.2,1.6,1.2,2.7
	C15.6,10.6,14.6,12,13.1,12.5z"/>
</svg>
