<svg width="150" height="150" viewBox="0 0 150 150" fill="none" xmlns="http://www.w3.org/2000/svg">
<path d="M79.53 110.453L81.57 126.203L86.25 127.703" stroke="#E7E6E6" stroke-width="3" stroke-linecap="round"/>
<path d="M69.0788 109.635L67.0388 125.385L62.3588 126.885" stroke="#E7E6E6" stroke-width="3" stroke-linecap="round"/>
<path d="M55.2637 66.8176C54.8887 63.5251 55.0463 60.1464 54.9675 56.8089C54.8175 50.7226 54.66 44.6364 54.6562 38.5539C54.6562 31.0539 57.84 25.3126 64.6425 22.1589C71.595 18.9414 78.2362 20.1189 84.1425 25.1589C87.5587 28.0576 89.6737 31.9089 89.9175 36.2926C90.4762 46.4664 90.5812 56.6551 90.4575 66.8363L55.2637 66.8176Z" fill="#E7E6E6"/>
<path d="M55.3013 66.6895H90.465C90.6675 75.4307 90.6375 84.1795 91.1438 92.9095C91.5188 99.6332 89.4075 105.284 84.8063 109.691C82.7813 111.633 79.635 112.563 76.6275 113.039C65.9775 114.734 56.1375 106.946 55.6725 96.0932C55.2638 86.5157 55.2975 76.927 55.14 67.342C55.1656 67.1184 55.2198 66.8991 55.3013 66.6895ZM65.5238 91.8745C66.5213 90.6595 67.2338 89.3132 67.1963 87.6032C67.0538 81.5545 66.9038 75.502 66.8738 69.4532C66.8738 67.9832 66.2738 67.5782 64.9988 67.5782C63.0375 67.597 61.0763 67.6495 59.1188 67.5782C57.9038 67.5332 57.4988 68.0882 57.5213 69.1982C57.6338 75.4757 57.7163 81.7532 57.8663 88.0307C57.8492 88.9511 58.1123 89.8549 58.6206 90.6224C59.1289 91.3899 59.8584 91.9848 60.7125 92.3282C62.3625 93.052 63.9713 92.737 65.5238 91.8745Z" fill="#E04C3F"/>
<path d="M65.5238 91.8752C63.9713 92.7414 62.3625 93.0564 60.7125 92.3327C59.8584 91.9892 59.1289 91.3944 58.6206 90.6269C58.1123 89.8594 57.8492 88.9555 57.8663 88.0352C57.7163 81.7577 57.6338 75.4802 57.5213 69.2027C57.4988 68.0777 57.8963 67.5377 59.1188 67.5827C61.0763 67.6502 63.0375 67.5827 64.9988 67.5827C66.2738 67.5827 66.8738 67.9877 66.8738 69.4577C66.9038 75.5064 67.0538 81.5589 67.1963 87.6077C67.2338 89.3102 66.5213 90.6564 65.5238 91.8752Z" fill="#EC7E79"/>
<path d="M75.8174 51.937C75.6786 52.7844 75.222 53.547 74.5407 54.0695C73.8593 54.5921 73.0043 54.8352 72.1499 54.7495C71.4279 54.639 70.7626 54.293 70.2574 53.7654C69.7522 53.2379 69.4354 52.5582 69.3562 51.832" fill="black"/>
<path d="M75.8174 51.937C75.6786 52.7844 75.222 53.547 74.5407 54.0695C73.8593 54.5921 73.0043 54.8352 72.1499 54.7495C71.4279 54.639 70.7626 54.293 70.2574 53.7654C69.7522 53.2379 69.4354 52.5582 69.3562 51.832" stroke="black"/>
<path d="M63.6038 45.1981C63.87 43.0906 65.37 41.6731 66.8625 41.9206C68.13 42.1306 69.1875 43.5143 69.3563 45.2956" stroke="black"/>
<path d="M75.8175 45.1981C76.0838 43.0906 77.5838 41.6731 79.0762 41.9206C80.3437 42.1306 81.4012 43.5143 81.57 45.2956" stroke="black"/>
<path d="M55.5488 92.7299C45.7088 93.0412 42.2925 86.3549 45.3525 79.3199C47.3775 74.6662 51.9863 67.2674 58.5113 64.0762" stroke="#E7E6E6" stroke-width="3"/>
<path d="M109.905 51.5176C111.881 61.1813 104.906 68.9138 88.3988 65.6926" stroke="#E7E6E6" stroke-width="3" stroke-linecap="round"/>
<path d="M83.8613 23.1679L86.2501 19.3691" stroke="#E7E6E6" stroke-width="3"/>
<path d="M86.5388 24.7273L90.8738 19.7773" stroke="#E7E6E6" stroke-width="3"/>
<path d="M88.1025 26.8648L91.425 24.9785" stroke="#E7E6E6" stroke-width="3"/>
<path d="M112.954 48.7493L114.266 47.4668" stroke="#0F354D" stroke-width="2"/>
<path d="M112.556 48.4414L113.239 49.1652" stroke="#898888" stroke-width="0.5" stroke-linecap="round"/>
<path d="M108.596 52.1934L109.264 52.8909" stroke="#898888" stroke-width="0.5" stroke-linecap="round"/>
<path d="M113.029 49.0566L109.166 52.6941" stroke="#193F57" stroke-width="1.5"/>
<path d="M112.658 48.6641L108.799 52.3016" stroke="#0F354D" stroke-width="1.5"/>
<path d="M116.111 47.9813C117.387 47.9813 118.421 46.9471 118.421 45.6713C118.421 44.3956 117.387 43.3613 116.111 43.3613C114.835 43.3613 113.801 44.3956 113.801 45.6713C113.801 46.9471 114.835 47.9813 116.111 47.9813Z" fill="#8E8E8E"/>
<path d="M116.531 47.7489C117.807 47.7489 118.841 46.7147 118.841 45.4389C118.841 44.1631 117.807 43.1289 116.531 43.1289C115.256 43.1289 114.221 44.1631 114.221 45.4389C114.221 46.7147 115.256 47.7489 116.531 47.7489Z" fill="white"/>
<path d="M118.393 46.7031C118.922 45.4269 118.316 43.9637 117.04 43.4351C115.763 42.9065 114.3 43.5125 113.772 44.7888C113.243 46.065 113.849 47.5282 115.125 48.0568C116.401 48.5854 117.865 47.9794 118.393 46.7031Z" stroke="#0F354D" stroke-width="2"/>
</svg>
