<svg width="360" height="400" viewBox="0 0 360 400" fill="none" xmlns="http://www.w3.org/2000/svg">
<path d="M198.08 294.539L203.52 336.539L216 340.539" stroke="#E7E6E6" stroke-width="3" stroke-linecap="round"/>
<path d="M170.21 292.359L164.77 334.359L152.29 338.359" stroke="#E7E6E6" stroke-width="3" stroke-linecap="round"/>
<path d="M133.37 178.18C132.37 169.4 132.79 160.39 132.58 151.49C132.18 135.26 131.76 119.03 131.75 102.81C131.75 82.8097 140.24 67.4997 158.38 59.0897C176.92 50.5097 194.63 53.6497 210.38 67.0897C219.49 74.8197 225.13 85.0897 225.78 96.7797C227.27 123.91 227.55 151.08 227.22 178.23L133.37 178.18Z" fill="#E7E6E6"/>
<path d="M133.47 177.84H227.24C227.78 201.15 227.7 224.48 229.05 247.76C230.05 265.69 224.42 280.76 212.15 292.51C206.75 297.69 198.36 300.17 190.34 301.44C161.94 305.96 135.7 285.19 134.46 256.25C133.37 230.71 133.46 205.14 133.04 179.58C133.108 178.984 133.253 178.399 133.47 177.84ZM160.73 245C163.39 241.76 165.29 238.17 165.19 233.61C164.81 217.48 164.41 201.34 164.33 185.21C164.33 181.29 162.73 180.21 159.33 180.21C154.1 180.26 148.87 180.4 143.65 180.21C140.41 180.09 139.33 181.57 139.39 184.53C139.69 201.27 139.91 218.01 140.31 234.75C140.265 237.204 140.966 239.614 142.321 241.661C143.677 243.708 145.622 245.294 147.9 246.21C152.3 248.14 156.59 247.3 160.73 245Z" fill="#E04C3F"/>
<path d="M160.73 245C156.59 247.31 152.3 248.15 147.9 246.22C145.622 245.304 143.677 243.718 142.321 241.671C140.966 239.624 140.265 237.214 140.31 234.76C139.91 218.02 139.69 201.28 139.39 184.54C139.33 181.54 140.39 180.1 143.65 180.22C148.87 180.4 154.1 180.22 159.33 180.22C162.73 180.22 164.33 181.3 164.33 185.22C164.41 201.35 164.81 217.49 165.19 233.62C165.29 238.16 163.39 241.75 160.73 245Z" fill="#EC7E79"/>
<path d="M188.18 138.501C187.81 140.76 186.592 142.794 184.775 144.187C182.958 145.581 180.678 146.229 178.4 146.001C176.475 145.706 174.7 144.783 173.353 143.376C172.006 141.97 171.161 140.157 170.95 138.221" fill="black"/>
<path d="M188.18 138.501C187.81 140.76 186.592 142.794 184.775 144.187C182.958 145.581 180.678 146.229 178.4 146.001C176.475 145.706 174.7 144.783 173.353 143.376C172.006 141.97 171.161 140.157 170.95 138.221" stroke="black"/>
<path d="M155.61 120.53C156.32 114.91 160.32 111.13 164.3 111.79C167.68 112.35 170.5 116.04 170.95 120.79" stroke="black"/>
<path d="M188.18 120.53C188.89 114.91 192.89 111.13 196.87 111.79C200.25 112.35 203.07 116.04 203.52 120.79" stroke="black"/>
<path d="M134.13 247.279C107.89 248.109 98.78 230.279 106.94 211.519C112.34 199.109 124.63 179.379 142.03 170.869" stroke="#E7E6E6" stroke-width="3"/>
<path d="M279.08 137.381C284.35 163.151 265.75 183.771 221.73 175.181" stroke="#E7E6E6" stroke-width="3" stroke-linecap="round"/>
<path d="M209.63 61.7804L216 51.6504" stroke="#E7E6E6" stroke-width="3"/>
<path d="M216.77 65.9402L228.33 52.7402" stroke="#E7E6E6" stroke-width="3"/>
<path d="M220.94 71.6394L229.8 66.6094" stroke="#E7E6E6" stroke-width="3"/>
<path d="M287.21 130L290.71 126.58" stroke="#0F354D" stroke-width="2"/>
<path d="M286.15 129.18L287.97 131.11" stroke="#898888" stroke-width="0.5" stroke-linecap="round"/>
<path d="M275.59 139.18L277.37 141.04" stroke="#898888" stroke-width="0.5" stroke-linecap="round"/>
<path d="M287.41 130.82L277.11 140.52" stroke="#193F57" stroke-width="1.5"/>
<path d="M286.42 129.77L276.13 139.47" stroke="#0F354D" stroke-width="1.5"/>
<path d="M295.63 127.951C299.032 127.951 301.79 125.193 301.79 121.791C301.79 118.389 299.032 115.631 295.63 115.631C292.228 115.631 289.47 118.389 289.47 121.791C289.47 125.193 292.228 127.951 295.63 127.951Z" fill="#8E8E8E"/>
<path d="M296.75 127.33C300.152 127.33 302.91 124.572 302.91 121.17C302.91 117.768 300.152 115.01 296.75 115.01C293.348 115.01 290.59 117.768 290.59 121.17C290.59 124.572 293.348 127.33 296.75 127.33Z" fill="white"/>
<path d="M301.715 124.542C303.125 121.139 301.509 117.237 298.105 115.828C294.702 114.418 290.8 116.034 289.391 119.437C287.981 122.841 289.597 126.742 293 128.152C296.404 129.562 300.306 127.946 301.715 124.542Z" stroke="#0F354D" stroke-width="2"/>
</svg>
