<svg width="76" height="107" viewBox="0 0 76 107" fill="none" xmlns="http://www.w3.org/2000/svg">
<path d="M35.8186 88.2988L37.7634 103.314L42.225 104.744" stroke="#E7E6E6" stroke-width="3" stroke-linecap="round"/>
<path d="M25.855 87.5195L23.9102 102.535L19.4486 103.965" stroke="#E7E6E6" stroke-width="3" stroke-linecap="round"/>
<path d="M12.6847 46.6987C12.3272 43.5598 12.4774 40.3387 12.4023 37.157C12.2593 31.3548 12.1092 25.5525 12.1056 19.7539C12.1056 12.6039 15.1408 7.13056 21.6258 4.12399C28.2539 1.05664 34.5852 2.17919 40.2158 6.98399C43.4726 9.74746 45.4889 13.419 45.7213 17.5982C46.254 27.2971 46.3541 37.0104 46.2361 46.7165L12.6847 46.6987Z" fill="#E7E6E6"/>
<path d="M12.7205 46.5781H46.2433C46.4363 54.9115 46.4077 63.2519 46.8903 71.5745C47.2478 77.9845 45.2351 83.372 40.8486 87.5727C38.9181 89.4245 35.9187 90.3111 33.0515 90.7651C22.8985 92.381 13.5177 84.9558 13.0744 74.6097C12.6848 65.4792 12.7169 56.3379 12.5668 47.2002C12.5911 46.9871 12.6428 46.778 12.7205 46.5781V46.5781ZM22.4659 70.5878C23.4169 69.4295 24.0962 68.1461 24.0604 66.5159C23.9246 60.7494 23.7816 54.9794 23.753 49.2129C23.753 47.8115 23.181 47.4254 21.9655 47.4254C20.0957 47.4433 18.226 47.4933 16.3598 47.4254C15.2015 47.3825 14.8154 47.9116 14.8369 48.9698C14.9441 54.9544 15.0228 60.9389 15.1658 66.9235C15.1495 67.8009 15.4003 68.6625 15.8849 69.3942C16.3695 70.1259 17.065 70.693 17.8792 71.0204C19.4522 71.7104 20.9859 71.4101 22.4659 70.5878Z" fill="#E04C3F"/>
<path d="M22.466 70.5871C20.9859 71.4129 19.4522 71.7132 17.8792 71.0232C17.065 70.6958 16.3695 70.1287 15.8849 69.397C15.4003 68.6654 15.1496 67.8037 15.1658 66.9263C15.0228 60.9417 14.9442 54.9572 14.8369 48.9727C14.8155 47.9002 15.1944 47.3854 16.3599 47.4283C18.226 47.4926 20.0957 47.4283 21.9655 47.4283C23.181 47.4283 23.753 47.8144 23.753 49.2158C23.7816 54.9822 23.9246 60.7523 24.0604 66.5187C24.0962 68.1418 23.4169 69.4252 22.466 70.5871Z" fill="#EC7E79"/>
<path d="M32.2794 32.5142C32.147 33.322 31.7117 34.049 31.0621 34.5472C30.4126 35.0453 29.5975 35.2771 28.783 35.1954C28.0946 35.09 27.4604 34.7602 26.9788 34.2573C26.4971 33.7543 26.1951 33.1063 26.1196 32.4141" fill="black"/>
<path d="M32.2794 32.5142C32.147 33.322 31.7117 34.049 31.0621 34.5472C30.4126 35.0453 29.5975 35.2771 28.783 35.1954C28.0946 35.09 27.4604 34.7602 26.9788 34.2573C26.4971 33.7543 26.1951 33.1063 26.1196 32.4141" stroke="black"/>
<path d="M20.6356 26.0887C20.8894 24.0796 22.3194 22.7283 23.7423 22.9642C24.9507 23.1644 25.9588 24.4836 26.1197 26.1817" stroke="black"/>
<path d="M32.2793 26.0887C32.5331 24.0796 33.9631 22.7283 35.386 22.9642C36.5943 23.1644 37.6025 24.4836 37.7633 26.1817" stroke="black"/>
<path d="M12.9565 71.4025C3.57572 71.6992 0.318893 65.325 3.23609 58.6183C5.1666 54.1817 9.56027 47.1283 15.7808 44.0859" stroke="#E7E6E6" stroke-width="3"/>
<path d="M64.776 32.1133C66.6601 41.3261 60.0106 48.6977 44.2734 45.6268" stroke="#E7E6E6" stroke-width="3" stroke-linecap="round"/>
<path d="M39.9478 5.08632L42.225 1.46484" stroke="#E7E6E6" stroke-width="3"/>
<path d="M42.5002 6.57447L46.633 1.85547" stroke="#E7E6E6" stroke-width="3"/>
<path d="M43.9911 8.61072L47.1585 6.8125" stroke="#E7E6E6" stroke-width="3"/>
<path d="M67.6826 29.4746L68.9339 28.252" stroke="#0F354D" stroke-width="2"/>
<path d="M67.3037 29.1816L67.9544 29.8716" stroke="#898888" stroke-width="0.5" stroke-linecap="round"/>
<path d="M63.5284 32.7559L64.1648 33.4208" stroke="#898888" stroke-width="0.5" stroke-linecap="round"/>
<path d="M67.7542 29.7676L64.0719 33.2353" stroke="#193F57" stroke-width="1.5"/>
<path d="M67.4001 29.3926L63.7214 32.8603" stroke="#0F354D" stroke-width="1.5"/>
<path d="M70.6927 28.7423C71.9089 28.7423 72.8949 27.7563 72.8949 26.5401C72.8949 25.3239 71.9089 24.3379 70.6927 24.3379C69.4764 24.3379 68.4905 25.3239 68.4905 26.5401C68.4905 27.7563 69.4764 28.7423 70.6927 28.7423Z" fill="#8E8E8E"/>
<path d="M71.0932 28.5196C72.3094 28.5196 73.2954 27.5337 73.2954 26.3174C73.2954 25.1012 72.3094 24.1152 71.0932 24.1152C69.8769 24.1152 68.891 25.1012 68.891 26.3174C68.891 27.5337 69.8769 28.5196 71.0932 28.5196Z" fill="white"/>
<path d="M72.8682 27.5244C73.3722 26.3077 72.7944 24.9128 71.5777 24.4088C70.361 23.9049 68.9662 24.4826 68.4622 25.6993C67.9582 26.916 68.536 28.3109 69.7527 28.8149C70.9694 29.3188 72.3643 28.7411 72.8682 27.5244Z" stroke="#0F354D" stroke-width="2"/>
</svg>
