<svg width="23" height="23" viewBox="0 0 23 23" fill="none" xmlns="http://www.w3.org/2000/svg">
<path d="M11.5 0C5.14933 0 0 5.14933 0 11.5C0 17.8507 5.14933 23 11.5 23C17.8507 23 23 17.8507 23 11.5C23 5.14933 17.8507 0 11.5 0ZM11.5 18.1741C10.9327 18.1741 10.4732 17.7146 10.4732 17.1473C10.4732 16.58 10.9327 16.1205 11.5 16.1205C12.0673 16.1205 12.5268 16.58 12.5268 17.1473C12.5268 17.7146 12.0673 18.1741 11.5 18.1741ZM13.1146 12.5396C12.8822 12.6294 12.6821 12.7871 12.5406 12.9923C12.3991 13.1974 12.3228 13.4404 12.3214 13.6896V14.2723C12.3214 14.3853 12.229 14.4777 12.1161 14.4777H10.8839C10.771 14.4777 10.6786 14.3853 10.6786 14.2723V13.7204C10.6786 13.1275 10.8506 12.5422 11.1894 12.0545C11.5205 11.577 11.9826 11.2125 12.5268 11.0046C13.3996 10.6683 13.9643 9.93672 13.9643 9.13839C13.9643 8.00636 12.8579 7.08482 11.5 7.08482C10.1421 7.08482 9.03571 8.00636 9.03571 9.13839V9.33348C9.03571 9.44643 8.9433 9.53884 8.83036 9.53884H7.59821C7.48527 9.53884 7.39286 9.44643 7.39286 9.33348V9.13839C7.39286 8.12958 7.83437 7.1875 8.63527 6.48672C9.40536 5.81161 10.4219 5.44196 11.5 5.44196C12.5781 5.44196 13.5946 5.81417 14.3647 6.48672C15.1656 7.1875 15.6071 8.12958 15.6071 9.13839C15.6071 10.6221 14.6291 11.9569 13.1146 12.5396Z" fill="#0F354D"/>
</svg>
