<svg width="36" height="36" viewBox="0 0 36 36" fill="none" xmlns="http://www.w3.org/2000/svg">
<path d="M4.78125 13.5H6.75C6.90469 13.5 7.03125 13.3734 7.03125 13.2188V7.03125H13.2188C13.3734 7.03125 13.5 6.90469 13.5 6.75V4.78125C13.5 4.62656 13.3734 4.5 13.2188 4.5H6.89062C5.56875 4.5 4.5 5.56875 4.5 6.89062V13.2188C4.5 13.3734 4.62656 13.5 4.78125 13.5ZM22.7812 7.03125H28.9688V13.2188C28.9688 13.3734 29.0953 13.5 29.25 13.5H31.2188C31.3734 13.5 31.5 13.3734 31.5 13.2188V6.89062C31.5 5.56875 30.4312 4.5 29.1094 4.5H22.7812C22.6266 4.5 22.5 4.62656 22.5 4.78125V6.75C22.5 6.90469 22.6266 7.03125 22.7812 7.03125ZM13.2188 28.9688H7.03125V22.7812C7.03125 22.6266 6.90469 22.5 6.75 22.5H4.78125C4.62656 22.5 4.5 22.6266 4.5 22.7812V29.1094C4.5 30.4312 5.56875 31.5 6.89062 31.5H13.2188C13.3734 31.5 13.5 31.3734 13.5 31.2188V29.25C13.5 29.0953 13.3734 28.9688 13.2188 28.9688ZM31.2188 22.5H29.25C29.0953 22.5 28.9688 22.6266 28.9688 22.7812V28.9688H22.7812C22.6266 28.9688 22.5 29.0953 22.5 29.25V31.2188C22.5 31.3734 22.6266 31.5 22.7812 31.5H29.1094C30.4312 31.5 31.5 30.4312 31.5 29.1094V22.7812C31.5 22.6266 31.3734 22.5 31.2188 22.5ZM31.7812 16.7344H4.21875C4.06406 16.7344 3.9375 16.8609 3.9375 17.0156V18.9844C3.9375 19.1391 4.06406 19.2656 4.21875 19.2656H31.7812C31.9359 19.2656 32.0625 19.1391 32.0625 18.9844V17.0156C32.0625 16.8609 31.9359 16.7344 31.7812 16.7344Z" fill="white"/>
</svg>
